<svg width="64" height="64" viewBox="0 0 64 64" fill="none" xmlns="http://www.w3.org/2000/svg">
<path d="M50.6667 8H13.3333C10.3878 8 8 10.3878 8 13.3333V50.6667C8 53.6122 10.3878 56 13.3333 56H50.6667C53.6122 56 56 53.6122 56 50.6667V13.3333C56 10.3878 53.6122 8 50.6667 8Z" stroke="white" stroke-width="4" stroke-linecap="round" stroke-linejoin="round"/>
<path d="M22.667 26.6667C24.8761 26.6667 26.667 24.8758 26.667 22.6667C26.667 20.4575 24.8761 18.6667 22.667 18.6667C20.4579 18.6667 18.667 20.4575 18.667 22.6667C18.667 24.8758 20.4579 26.6667 22.667 26.6667Z" stroke="white" stroke-width="4" stroke-linecap="round" stroke-linejoin="round"/>
<path d="M55.9997 40L42.6663 26.6667L13.333 56" stroke="white" stroke-width="4" stroke-linecap="round" stroke-linejoin="round"/>
</svg>
