<svg width="55" height="55" fill="none" xmlns="http://www.w3.org/2000/svg"><path d="M39.531 0H15.47a5.158 5.158 0 00-5.156 5.156v44.688A5.158 5.158 0 0015.468 55H39.53a5.158 5.158 0 005.157-5.156V5.156A5.158 5.158 0 0039.53 0zM27.5 51.563a3.434 3.434 0 01-3.438-3.438 3.434 3.434 0 013.438-3.438 3.434 3.434 0 013.438 3.438 3.434 3.434 0 01-3.438 3.438zM39.531 39.96c0 .709-.58 1.289-1.289 1.289H16.758c-.71 0-1.29-.58-1.29-1.29V6.446c0-.709.58-1.289 1.29-1.289h21.484c.71 0 1.29.58 1.29 1.29V39.96z" fill="#fff"/></svg>