<svg width="55" height="55" fill="none" xmlns="http://www.w3.org/2000/svg"><g clip-path="url(#clip0_20_586)"><path d="M49.093 36.998c-2.691 2.184-5.654 3.994-8.867 5.27l5.842 10.117 5.795 2.475a1.719 1.719 0 002.382-1.375l.754-6.257-5.906-10.23zm4.564-10.158c.522-.823.203-1.932-.65-2.405l-3.015-1.672c-.803-.446-1.784-.157-2.284.614A24.086 24.086 0 0127.5 34.375c-2.57 0-5.073-.456-7.456-1.239l7.236-12.534c.075.003.144.023.219.023.075 0 .145-.02.22-.023l5.487 9.507a20.462 20.462 0 008.874-5.255l-5.563-9.637c.8-1.464 1.295-3.118 1.295-4.905C37.813 4.617 33.197 0 27.5 0c-5.695 0-10.313 4.617-10.313 10.313 0 1.786.496 3.44 1.295 4.904l-7.337 12.71a24.018 24.018 0 01-3.618-4.19c-.514-.763-1.5-1.033-2.297-.572L2.25 24.89c-.844.487-1.142 1.6-.606 2.414 1.672 2.539 3.726 4.749 6.013 6.662L0 47.229l.754 6.257a1.719 1.719 0 002.382 1.375l5.795-2.475 7.606-13.173A30.836 30.836 0 0027.5 41.25c10.64 0 20.505-5.48 26.157-14.41zM27.5 6.875a3.438 3.438 0 110 6.876 3.438 3.438 0 010-6.876z" fill="#fff"/></g><defs><clipPath id="clip0_20_586"><path fill="#fff" d="M0 0h55v55H0z"/></clipPath></defs></svg>