<svg width="55" height="55" fill="none" xmlns="http://www.w3.org/2000/svg"><g clip-path="url(#clip0_20_591)"><path d="M54.248 47.556l-10.71-10.71a2.576 2.576 0 00-1.826-.752H39.96a22.234 22.234 0 004.727-13.75C44.688 10 34.685 0 22.343 0 10 0 0 10.001 0 22.344c0 12.343 10.001 22.343 22.344 22.343 5.188 0 9.958-1.761 13.75-4.726v1.75c0 .688.268 1.344.752 1.827l10.71 10.71a2.567 2.567 0 003.641 0l3.04-3.04a2.59 2.59 0 00.011-3.652zM22.344 36.094c-7.595 0-13.75-6.145-13.75-13.75 0-7.595 6.144-13.75 13.75-13.75 7.595 0 13.75 6.144 13.75 13.75 0 7.595-6.145 13.75-13.75 13.75z" fill="#fff"/></g><defs><clipPath id="clip0_20_591"><path fill="#fff" d="M0 0h55v55H0z"/></clipPath></defs></svg>