<svg width="55" height="55" fill="none" xmlns="http://www.w3.org/2000/svg"><path d="M42.969 6.875h-8.594A6.881 6.881 0 0027.5 0a6.881 6.881 0 00-6.875 6.875h-8.594a5.158 5.158 0 00-5.156 5.156v37.813A5.158 5.158 0 0012.031 55H42.97a5.158 5.158 0 005.156-5.156V12.03a5.158 5.158 0 00-5.156-5.156zM17.187 45.547a2.572 2.572 0 01-2.578-2.578 2.572 2.572 0 012.579-2.578 2.572 2.572 0 012.578 2.578 2.572 2.572 0 01-2.578 2.578zm0-10.313a2.572 2.572 0 01-2.578-2.578 2.572 2.572 0 012.579-2.578 2.572 2.572 0 012.578 2.578 2.572 2.572 0 01-2.578 2.578zm0-10.312a2.572 2.572 0 01-2.578-2.578 2.572 2.572 0 012.579-2.578 2.572 2.572 0 012.578 2.578 2.572 2.572 0 01-2.578 2.578zM27.5 4.297a2.572 2.572 0 012.578 2.578A2.572 2.572 0 0127.5 9.453a2.572 2.572 0 01-2.578-2.578A2.572 2.572 0 0127.5 4.297zm13.75 39.531c0 .473-.387.86-.86.86H24.923a.862.862 0 01-.86-.86V42.11c0-.472.387-.859.86-.859H40.39c.472 0 .859.387.859.86v1.718zm0-10.312a.862.862 0 01-.86.859H24.923a.862.862 0 01-.86-.86v-1.718c0-.473.387-.86.86-.86H40.39c.472 0 .859.387.859.86v1.719zm0-10.313c0 .473-.387.86-.86.86H24.923a.862.862 0 01-.86-.86v-1.719c0-.472.387-.859.86-.859H40.39c.472 0 .859.387.859.86v1.718z" fill="#fff"/></svg>