<svg width="55" height="55" viewBox="0 0 55 55" fill="none" xmlns="http://www.w3.org/2000/svg">
<path d="M43.5417 6.875H11.4583C8.92703 6.875 6.875 8.92703 6.875 11.4583V43.5417C6.875 46.073 8.92703 48.125 11.4583 48.125H43.5417C46.073 48.125 48.125 46.073 48.125 43.5417V11.4583C48.125 8.92703 46.073 6.875 43.5417 6.875Z" stroke="white" stroke-width="2" stroke-linecap="round" stroke-linejoin="round"/>
<path d="M19.479 22.9167C21.3775 22.9167 22.9165 21.3776 22.9165 19.4792C22.9165 17.5807 21.3775 16.0417 19.479 16.0417C17.5805 16.0417 16.0415 17.5807 16.0415 19.4792C16.0415 21.3776 17.5805 22.9167 19.479 22.9167Z" stroke="white" stroke-width="2" stroke-linecap="round" stroke-linejoin="round"/>
<path d="M48.1252 34.375L36.6668 22.9167L11.4585 48.125" stroke="white" stroke-width="2" stroke-linecap="round" stroke-linejoin="round"/>
</svg>
