<svg width="64" height="64" viewBox="0 0 64 64" fill="none" xmlns="http://www.w3.org/2000/svg">
<path d="M48 21.3333C52.4183 21.3333 56 17.7516 56 13.3333C56 8.91507 52.4183 5.33334 48 5.33334C43.5817 5.33334 40 8.91507 40 13.3333C40 17.7516 43.5817 21.3333 48 21.3333Z" stroke="white" stroke-width="4" stroke-linecap="round" stroke-linejoin="round"/>
<path d="M16 40C20.4183 40 24 36.4183 24 32C24 27.5817 20.4183 24 16 24C11.5817 24 8 27.5817 8 32C8 36.4183 11.5817 40 16 40Z" stroke="white" stroke-width="4" stroke-linecap="round" stroke-linejoin="round"/>
<path d="M48 58.6667C52.4183 58.6667 56 55.0849 56 50.6667C56 46.2484 52.4183 42.6667 48 42.6667C43.5817 42.6667 40 46.2484 40 50.6667C40 55.0849 43.5817 58.6667 48 58.6667Z" stroke="white" stroke-width="4" stroke-linecap="round" stroke-linejoin="round"/>
<path d="M22.9067 36.0267L41.1201 46.64" stroke="white" stroke-width="4" stroke-linecap="round" stroke-linejoin="round"/>
<path d="M41.0934 17.36L22.9067 27.9733" stroke="white" stroke-width="4" stroke-linecap="round" stroke-linejoin="round"/>
</svg>
